<svg width="256" height="256" viewBox="0 0 256 256" fill="none" xmlns="http://www.w3.org/2000/svg">
<path d="M196 0H60C26.8629 0 0 26.8629 0 60V196C0 229.137 26.8629 256 60 256H196C229.137 256 256 229.137 256 196V60C256 26.8629 229.137 0 196 0Z" fill="#F4F2ED"/>
<path fill-rule="evenodd" clip-rule="evenodd" d="M91.7659 43.1773C117.317 16.2543 159.632 8.35624 194.419 23.8967C240.635 44.5466 257.498 97.1494 232.335 137.726L175.725 228.908C172.562 234.002 167.358 237.72 161.253 239.243C155.149 240.766 148.645 239.971 143.168 237.035L211.702 126.622C229.959 97.1725 217.747 58.9995 184.24 43.9698C159.096 32.6932 128.362 38.3266 109.788 57.7196C99.5423 68.3661 93.7904 82.1114 93.5988 96.4066C93.4069 110.702 98.7871 124.577 108.745 135.459C110.534 137.411 112.458 139.252 114.507 140.97L74.4991 205.542C72.9345 208.067 70.8513 210.278 68.3684 212.054C65.8858 213.828 63.0519 215.129 60.0291 215.884C57.006 216.639 53.8532 216.832 50.7502 216.451C47.6472 216.071 44.6551 215.125 41.9444 213.669L85.3792 143.566C79.1403 135.188 74.6598 125.788 72.1743 115.859L45.558 158.903C42.3942 163.999 37.1886 167.715 31.0844 169.239C24.98 170.764 18.4757 169.969 13 167.03L81.8295 55.9988C84.6944 51.4393 88.0218 47.1457 91.7659 43.1773ZM171.208 78.5187C187.785 87.4346 193.509 107.262 183.917 122.693L117.916 228.894C114.753 233.988 109.545 237.707 103.441 239.23C97.3367 240.752 90.8335 239.958 85.3578 237.021L146.643 138.147C141.725 137.184 137.093 135.237 133.061 132.442C129.031 129.648 125.699 126.072 123.296 121.962C120.893 117.852 119.477 113.304 119.145 108.635C118.813 103.966 119.573 99.2844 121.374 94.915C123.173 90.5457 125.971 86.5923 129.571 83.3277C133.172 80.0631 137.489 77.5651 142.227 76.0061C146.966 74.4473 152.012 73.8646 157.015 74.2983C162.018 74.7322 166.862 76.1721 171.208 78.5187ZM147.202 98.4773C146.067 99.2882 145.114 100.3 144.399 101.453C143.322 103.191 142.819 105.186 142.961 107.188C143.104 109.189 143.878 111.107 145.189 112.698C146.502 114.29 148.289 115.483 150.329 116.128C152.368 116.772 154.569 116.839 156.65 116.32C158.73 115.801 160.596 114.718 162.018 113.21C163.437 111.702 164.347 109.836 164.628 107.847C164.907 105.858 164.549 103.836 163.596 102.037C162.643 100.238 161.14 98.7425 159.274 97.7394C158.037 97.0735 156.668 96.6412 155.252 96.4674C153.833 96.2935 152.392 96.3816 151.012 96.7265C149.631 97.0715 148.334 97.6662 147.202 98.4773Z" fill="#615EFF"/>
</svg>
