<svg width="256" height="256" viewBox="0 0 256 256" fill="none" id="arrow" xmlns="http://www.w3.org/2000/svg">
<style>
#arrow {
    rect {fill: #242938}
    
    @media (prefers-color-scheme: light) {
        rect {fill: #F4F2ED}
    }
}  
</style>
<path d="M196 0H60C26.8629 0 0 26.8629 0 60V196C0 229.137 26.8629 256 60 256H196C229.137 256 256 229.137 256 196V60C256 26.8629 229.137 0 196 0Z" fill="#242938"/>
<path d="M25 23L110 128.001L25 233V191L75.9996 128.001L25 65V23Z" fill="white"/>
<path d="M87 23L172 128.001L87 233V191L138 128.001L87 65V23Z" fill="white"/>
<path d="M145 23L232 128.001L145 233V191L197.2 128.001L145 65V23Z" fill="white"/>
</svg>