<svg width="256" height="256" viewBox="0 0 256 256" fill="none" id="clickhouse" xmlns="http://www.w3.org/2000/svg" xmlns:xlink="http://www.w3.org/1999/xlink">
<style>
#clickhouse {
    rect {fill: #242938}
    
    @media (prefers-color-scheme: light) {
        rect {fill: #F4F2ED}
    }
}  
</style>
<path d="m0 0h256v256h-256z"/>
<path d="m34 37h189v181h-189z"/>
<path d="m223 37h-189v181h189z" fill="#fff"/>
<g clip-path="url(#a)">
<path d="m196 0h-136c-33.1371 0-60 26.8629-60 60v136c0 33.137 26.8629 60 60 60h136c33.137 0 60-26.863 60-60v-136c0-33.1371-26.863-60-60-60z" fill="#242938"/>
<g clip-path="url(#b)">
<g mask="url(#c)">
<path d="m34.0094 195.375h20.9979v22.625h-20.9979z" fill="#f00"/>
<path d="m34.0096 37h20.9979v158.375h-20.9979zm41.9958 0h20.9979v181h-20.9979zm41.9956 0h20.998v181h-20.998zm41.996 0h20.998v181h-20.998zm41.995 73.531h20.999v33.938h-20.999z" fill="#fc0"/>
</g>
</g>
</g>
</svg>
