<svg fill="none" height="256" viewBox="0 0 256 256" width="256" xmlns="http://www.w3.org/2000/svg" xmlns:xlink="http://www.w3.org/1999/xlink">
<path d="m0 0h256v256h-256z"/>
<g clip-path="url(#a)">
<path d="m196 0h-136c-33.1371 0-60 26.8629-60 60v136c0 33.137 26.8629 60 60 60h136c33.137 0 60-26.863 60-60v-136c0-33.1371-26.863-60-60-60z" fill="#f4f2ed"/>
<path d="m72.355 78.6389 63.25-36.495c.625-.36 1.01-1.025 1.01-1.75l.005-21.885c0-3.24-1.33-6.45-3.915-8.405-3.345-2.53005-7.64-2.78005-11.165-.74005l-88.475 51.05505c-3.11 1.795-5.03 5.115-5.03 8.705l-.035 115.3001c0 3.235 1.325 6.445 3.905 8.405 3.34 2.535 7.645 2.785 11.175.745l18.74-10.81c.625-.36 1.01-1.025 1.01-1.75l.025-85.9251c0-6.79 3.62-13.055 9.5-16.45z" fill="#ffc11e"/>
<path d="m223.975 62.0989c-1.575-.91-3.305-1.365-5.03-1.365s-3.45.455-5.025 1.365l-88.48 51.0501c-3.1 1.79-5.03 5.125-5.03 8.705l-.035 115.735c0 3.635 1.88 6.89 5.025 8.71 3.15 1.82 6.905 1.82 10.055 0l88.475-51.055c3.1-1.79 5.03-5.125 5.03-8.705l.04-115.7301c0-3.635-1.88-6.895-5.025-8.71z" fill="#ef1161"/>
<path d="m120.975 105.404 58.39-33.6899c.625-.36 1.01-1.025 1.01-1.75l.01-25.49c0-3.24-1.33-6.45-3.915-8.405-3.345-2.53-7.635-2.775-11.165-.74l-24.215 13.975-64.27 37.08c-3.11 1.795-5.03 5.115-5.03 8.705l-.025 87.0899-.01 28.205c0 3.24 1.325 6.445 3.905 8.405 3.345 2.535 7.645 2.785 11.175.745l23.6-13.62c.625-.36 1.01-1.025 1.01-1.75l.025-82.32c.005-6.78 3.625-13.05 9.505-16.44z" fill="#fc6e6b"/>
</g>
</svg>
