<svg width="256" height="256" viewBox="0 0 256 256" fill="none" id="nvidia" xmlns="http://www.w3.org/2000/svg" xmlns:xlink="http://www.w3.org/1999/xlink">
<style>
#nvidia {
    rect {fill: #242938}
    
    @media (prefers-color-scheme: light) {
        rect {fill: #F4F2ED}
    }
}  
</style>
<g clip-path="url(#a)">
<g mask="url(#b)">
<g mask="url(#c)">
<g mask="url(#d)">
<path d="m196 0h-136c-33.1371 0-60 26.8629-60 60v136c0 33.137 26.8629 60 60 60h136c33.137 0 60-26.863 60-60v-136c0-33.1371-26.863-60-60-60z" fill="#242938"/>
<g mask="url(#e)">
<path d="m233.513 214.146c0 2.695-1.678 4.505-3.665 4.505v-.017c-2.042.017-3.69-1.793-3.69-4.488 0-2.693 1.648-4.497 3.69-4.497 1.988-.003 3.665 1.802 3.665 4.497zm1.487 0c0-3.7-2.436-5.847-5.152-5.847-2.733 0-5.17 2.147-5.17 5.847 0 3.697 2.438 5.854 5.17 5.854 2.716 0 5.152-2.157 5.152-5.854zm-6.005.493h.551l1.278 2.649h1.404l-1.417-2.76c.732-.061 1.335-.472 1.335-1.632 0-1.445-.845-1.909-2.275-1.909h-2.065v6.301h1.187v-2.649m.002-1.065v-1.517h.826c.45 0 1.062.042 1.062.691 0 .703-.316.826-.847.826z" fill="#fff"/>
<path d="m200.309 181.917 6.423 20.728h-13.045zm-6.878-8.069-14.802 44.236h10.452l2.342-7.816h17.516l2.215 7.816h11.347l-14.913-44.243zm-29.716 44.252h10.603v-44.266l-10.605-.003zm-73.615-44.269-8.8471 35.085-8.4749-35.082-11.4415-.003 12.1039 44.269h15.2765l12.2011-44.269zm42.863 9.639h4.557c6.612 0 10.888 3.503 10.888 12.589 0 9.09-4.276 12.59-10.888 12.59h-4.557zm-10.516-9.639v44.269h17.191c9.159 0 12.15-1.795 15.385-5.825 2.284-2.828 3.762-9.037 3.762-15.821 0-6.225-1.252-11.773-3.43-15.231-3.93-6.183-9.588-7.392-18.03-7.392zm-100.447-.062v44.331h10.6936v-33.659l8.2859.001c2.7435 0 4.6993.807 6.0204 2.472 1.6757 2.106 2.36 5.504 2.36 11.72v19.466h10.3621v-24.492c0-17.482-9.4458-19.839-18.6879-19.839zm83.381.062.004 44.269h10.6v-44.269z" fill="#fff"/>
<path d="m50.4982 85.6863s13.6383-23.7361 40.8698-26.1916v-8.6115c-30.1623 2.8573-56.2816 32.991-56.2816 32.991s14.7936 50.4458 56.2816 55.0648v-9.154c-30.4458-4.518-40.8698-44.0987-40.8698-44.0987zm40.8698 25.8947v8.383c-23.0103-4.838-29.3974-33.053-29.3974-33.053s11.0482-14.4377 29.3974-16.7789v9.1983c-.0141 0-.0236-.0051-.0352-.0051-9.6307-1.3631-17.154 9.2492-17.154 9.2492s4.2167 17.8655 17.1892 23.0065zm0-76.581v15.8832c.8848-.0802 1.7703-.148 2.6611-.1838 34.2919-1.3631 56.6339 33.1748 56.6339 33.1748s-25.661 36.8078-52.3959 36.8078c-2.4514 0-4.7453-.268-6.8991-.718v9.821c1.8426.277 3.7519.438 5.7463.438 24.8787 0 42.8697-14.988 60.2917-32.7256 2.888 2.7296 14.714 9.3666 17.144 12.2736-16.564 16.359-55.169 29.544-77.0548 29.544-2.1094 0-4.1361-.15-6.1272-.376v13.801h94.562v-117.74zm0 35.1321v-10.6374c.8758-.0722 1.7587-.1274 2.6611-.1608 24.6589-.9138 40.8369 24.9955 40.8369 24.9955s-17.474 28.6266-36.209 28.6266c-2.6967 0-5.1133-.512-7.289-1.375v-32.2506c9.6 1.3683 11.531 6.3701 17.303 17.7186l12.835-12.7666s-9.369-14.4957-25.1649-14.4957c-1.7169-.0008-3.3602.1416-4.9731.3454z" fill="#77b900"/>
</g>
</g>
</g>
</g>
</g>
</svg>